<?xml version="1.0" standalone="no"?>
<!DOCTYPE svg PUBLIC "-//W3C//DTD SVG 20010904//EN"
 "http://www.w3.org/TR/2001/REC-SVG-20010904/DTD/svg10.dtd">
<svg version="1.0" xmlns="http://www.w3.org/2000/svg"
 width="48.000000pt" height="70.000000pt" viewBox="0 0 48.000000 70.000000"
 preserveAspectRatio="xMidYMid meet">
<metadata>
Created by potrace 1.15, written by Peter Selinger 2001-2017
</metadata>
<g transform="translate(0.000000,70.000000) scale(0.100000,-0.100000)"
fill="#000000" stroke="none">
<path d="M37 536 c-29 -23 -36 -65 -19 -131 13 -54 13 -64 -2 -106 -22 -63
-20 -105 5 -130 66 -66 271 55 286 168 6 51 -29 118 -84 159 -23 18 -39 35
-35 38 3 4 -2 4 -12 0 -11 -4 -17 -3 -14 2 10 15 -105 16 -125 0z m133 -75
c55 -33 86 -85 76 -126 -10 -40 -74 -99 -131 -120 -65 -25 -74 -13 -45 64 22
61 22 61 4 132 -16 61 -16 71 -4 79 19 12 44 5 100 -29z"/>
</g>
</svg>
